<svg xmlns="http://www.w3.org/2000/svg" viewBox="0 0 1286.76 782.59"><defs><style>.cls-1{fill:#0b1e29;}.cls-2{fill:#9bdaef;}.cls-3{fill:#17a3a4;}.cls-4{font-size:26.43px;}.cls-17,.cls-18,.cls-4,.cls-8{fill:#fff;}.cls-17,.cls-4{font-family:ProximaNova-Semibold, Proxima Nova;font-weight:600;}.cls-5{letter-spacing:-0.02em;}.cls-6{letter-spacing:-0.04em;}.cls-7{letter-spacing:-0.03em;}.cls-9{fill:#132626;}.cls-10{fill:#6fccdc;}.cls-11{fill:#818181;opacity:0.79;}.cls-12{fill:#234b4c;}.cls-13{fill:#0d1212;}.cls-14{fill:#13a5a6;}.cls-15{fill:#6bcad4;}.cls-16{fill:#08bab1;}.cls-17{font-size:36.23px;}.cls-18{font-size:33px;font-family:ProximaNova-Regular, Proxima Nova;}.cls-19{letter-spacing:-0.03em;}.cls-20{letter-spacing:-0.04em;}.cls-21{letter-spacing:-0.04em;}.cls-22{fill:#138f8b;}.cls-23{fill:#e6e6e5;}</style></defs><g id="Layer_2" data-name="Layer 2"><g id="Layer_2-2" data-name="Layer 2"><path class="cls-1" d="M416.23,663.62A1.29,1.29,0,0,1,415,662.4L402.49,432.91a1.29,1.29,0,0,1,.35-1,1.27,1.27,0,0,1,.94-.4H877.25a1.27,1.27,0,0,1,.93.4,1.29,1.29,0,0,1,.35,1L866.07,662.4a1.28,1.28,0,0,1-1.28,1.22Z"/><path class="cls-2" d="M874.7,435.25,862.5,659.92h-444l-12.2-224.67H874.7m2.55-7.4H403.78a5,5,0,0,0-5,5.26L411.25,662.6a5,5,0,0,0,5,4.72H864.79a5,5,0,0,0,5-4.72l12.46-229.49a5,5,0,0,0-5-5.26Z"/><rect class="cls-3" x="211.93" y="720.75" width="1074.83" height="28.39" rx="14.19"/><text class="cls-4" transform="translate(604.36 571.21)">2.</text><text class="cls-4" transform="translate(627.65 571.52)">TERRI<tspan class="cls-5" x="70.58" y="0">T</tspan><tspan x="85.17" y="0">ORIES</tspan></text><text class="cls-4" transform="translate(495.49 533.55)">1.</text><text class="cls-4" transform="translate(515.84 533.86)">MARKET</text><text class="cls-4" transform="translate(497.86 611.88)">3.</text><text class="cls-4" transform="translate(524.71 612.52)"><tspan class="cls-6">F</tspan><tspan class="cls-7" x="13.82" y="0">A</tspan><tspan x="30.68" y="0">CTIONS</tspan></text><polygon class="cls-8" points="588.06 677.69 594.15 625.75 668.04 625.75 674.13 677.69 588.06 677.69"/><rect class="cls-9" x="481.43" y="470.4" width="50.9" height="101.32" rx="14.93"/><rect class="cls-10" y="720.75" width="1074.83" height="28.39" rx="14.19"/><path class="cls-11" d="M668.76,631.87l4.16,35.45s-16.58,10.64-40.48,8.1C632.44,675.42,654,668.58,668.76,631.87Z"/><path class="cls-2" d="M505.86,427.85a8,8,0,0,0,4,.81,22.15,22.15,0,0,0,4.05-.47,49.42,49.42,0,0,0,7.78-2.44,115.67,115.67,0,0,0,14.64-7.23,230,230,0,0,0,27-18.42,305.74,305.74,0,0,0,46.58-45.45c13.75-16.73,25.67-35,34.24-54.64s13.57-40.69,13.11-61.68h11A144.44,144.44,0,0,1,663.37,272a174.66,174.66,0,0,1-11.79,31.51c-9.81,20.11-22.85,38.31-37.57,54.77a310,310,0,0,1-49.1,44.06,231.42,231.42,0,0,1-28,17.43,116.21,116.21,0,0,1-15.06,6.66,47.7,47.7,0,0,1-8,2.13,21,21,0,0,1-4.11.31A8.13,8.13,0,0,1,505.86,427.85Z"/><path class="cls-2" d="M758,427.85a2.49,2.49,0,0,0,2,.22,4.41,4.41,0,0,0,1.73-1.16,16.13,16.13,0,0,0,2.46-3.43,64,64,0,0,0,3.51-7.73c2-5.3,3.76-10.71,5.44-16.14,3.33-10.87,6.39-21.82,9.56-32.75,6.32-21.87,12.91-43.72,20.93-65.15,4-10.71,8.38-21.32,13.34-31.71a222.09,222.09,0,0,1,17.16-30.16c6.64-9.57,14.38-18.7,24.12-26a65.31,65.31,0,0,1,16.12-8.9,55.33,55.33,0,0,1,18.45-3.52v11a44.81,44.81,0,0,0-15,2.25,55.81,55.81,0,0,0-14,7c-8.78,6-16.36,14.14-23,23a213.7,213.7,0,0,0-17.72,28.44c-5.25,9.94-10,20.21-14.37,30.64-8.79,20.87-16.23,42.35-23.41,63.93-3.61,10.79-7.11,21.62-10.88,32.37-1.9,5.37-3.85,10.73-6.12,16a62.91,62.91,0,0,1-3.85,7.65A16.51,16.51,0,0,1,761.9,427a4.61,4.61,0,0,1-1.83,1.11A2.49,2.49,0,0,1,758,427.85Z"/><path class="cls-12" d="M907.61,770.33l-10.38-13.8a234.83,234.83,0,0,0-91.61-73.12h0a195.66,195.66,0,0,0-80.06-17.12H693.73c-16,5.48-40,10.38-61.38,10.38l.09-1.25c-4.16-.18-7.47.17-11.87,0-11.84-.54-22.77-4.66-31-11.81l-67.72,7.8c-10.62,0-39.69,4.32-50.13,6.31l-50.64,6c-31.77,6-48,19.21-69.83,43.08l-48.7,53.34a1.46,1.46,0,0,0,1.08,2.45h117c-.07-3.66-.18-7.32-.18-11a1.5,1.5,0,0,1,3,0c0,3.67.11,7.33.18,11H901.48A7.66,7.66,0,0,0,907.61,770.33Z"/><path class="cls-9" d="M912.84,782.59H624.55l7.89-107.17c21.39,0,23.94-3.07,40-8.55l54.45-.58c26.75,0,43.71,3.63,68.12,14.57l22.3,12.52c33,14.78,55,29.93,76.69,58.8l20.48,27.22A2,2,0,0,1,912.84,782.59Z"/><path class="cls-8" d="M629.3,646.86h0c-51.25-17-95.57-48.72-95.57-108.82V429.22H724.87V538C724.87,598.14,682.46,634.3,629.3,646.86Z"/><ellipse class="cls-13" cx="540.9" cy="435.1" rx="55.74" ry="59.22"/><ellipse class="cls-13" cx="608.5" cy="406.74" rx="77.93" ry="82.8"/><rect class="cls-9" x="723.89" y="471.71" width="50.9" height="101.32" rx="14.93"/><circle class="cls-13" cx="686.43" cy="435.1" r="63.25"/><path class="cls-2" d="M447.71,427.85a243.22,243.22,0,0,1-22.06-13.27q-10.69-7.2-20.79-15.31t-19.41-17.12a258.91,258.91,0,0,1-17.65-19,204.84,204.84,0,0,1-15.43-21.05A175.73,175.73,0,0,1,339.81,319a159,159,0,0,1-8.92-24.87l-1.61-6.45c-.48-2.16-.83-4.35-1.25-6.53l-.6-3.28c-.16-1.1-.28-2.2-.42-3.3l-.79-6.63,11-.67.41,6.18c.08,1,.12,2.06.22,3.09l.4,3.08c.28,2.05.5,4.11.83,6.15l1.19,6.11a148.69,148.69,0,0,0,7.17,23.92,167.86,167.86,0,0,0,10.83,22.7,198.81,198.81,0,0,0,13.87,21.19,248.89,248.89,0,0,0,16.29,19.58q8.67,9.36,18.24,17.9t19.79,16.28A242.65,242.65,0,0,0,447.71,427.85Z"/><path class="cls-13" d="M498.07,473s26.53,92.75,41.26,99.48c0,0,21.29,55.5,85,56.15.4,0,4.61-8.53,5-8.53.6,0,.7,8.76,1.29,8.75,67-1,89.57-58,89.57-58s31-52.32,32-95.52"/><rect class="cls-14" x="474.6" y="499.84" width="10.55" height="45.06" rx="2.6"/><rect class="cls-14" x="772.96" y="502.86" width="10.55" height="45.06" rx="2.6"/><path class="cls-15" d="M483.53,475.43s125.69-197.9,289.24,0L750.49,480s-114.37-133.32-245.28,0"/><path class="cls-16" d="M485.49,490.93s125.68-197.9,289.23,0l-22.27,4.6s-114.37-133.32-245.28,0"/><rect class="cls-16" x="480.82" y="470.4" width="41.03" height="101.32" rx="13.41"/><rect class="cls-16" x="737.21" y="471.71" width="41.03" height="101.32" rx="13.41"/><rect class="cls-1" x="108.16" y="72.67" width="279.73" height="234.69" rx="17.6"/><path class="cls-2" d="M370.3,74.49a15.79,15.79,0,0,1,15.77,15.78V289.76a15.79,15.79,0,0,1-15.77,15.78H125.76A15.8,15.8,0,0,1,110,289.76V90.27a15.8,15.8,0,0,1,15.78-15.78H370.3m0-3.64H125.76a19.43,19.43,0,0,0-19.42,19.42V289.76a19.42,19.42,0,0,0,19.42,19.42H370.3a19.41,19.41,0,0,0,19.41-19.42V90.27A19.42,19.42,0,0,0,370.3,70.85Z"/><rect class="cls-1" x="490.38" y="1.79" width="269.61" height="234.75" rx="17.63"/><path class="cls-2" d="M742.35,3.57A15.87,15.87,0,0,1,758.2,19.42V218.91a15.86,15.86,0,0,1-15.85,15.84H508a15.86,15.86,0,0,1-15.85-15.84V19.42A15.87,15.87,0,0,1,508,3.57H742.35m0-3.57H508a19.41,19.41,0,0,0-19.42,19.42V218.91A19.42,19.42,0,0,0,508,238.33H742.35a19.42,19.42,0,0,0,19.42-19.42V19.42A19.41,19.41,0,0,0,742.35,0Z"/><rect class="cls-1" x="894.65" y="58.64" width="269.61" height="234.75" rx="17.63"/><path class="cls-2" d="M1146.63,60.43a15.86,15.86,0,0,1,15.84,15.84v199.5a15.86,15.86,0,0,1-15.84,15.84H912.28a15.86,15.86,0,0,1-15.84-15.84V76.27a15.86,15.86,0,0,1,15.84-15.84h234.35m0-3.57H912.28a19.41,19.41,0,0,0-19.41,19.41v199.5a19.41,19.41,0,0,0,19.41,19.41h234.35a19.42,19.42,0,0,0,19.42-19.41V76.27a19.42,19.42,0,0,0-19.42-19.41Z"/><path class="cls-15" d="M764.83,471.71h-7.11V573h7.11a13.41,13.41,0,0,0,13.41-13.4V485.11A13.41,13.41,0,0,0,764.83,471.71Z"/><path class="cls-15" d="M494.22,470.4h7.11V571.73h-7.11a13.41,13.41,0,0,1-13.4-13.41V483.81A13.4,13.4,0,0,1,494.22,470.4Z"/><text class="cls-17" transform="translate(509.82 42.31)">2.</text><text class="cls-18" transform="translate(539.98 41.91)">TERRI<tspan class="cls-19" x="85.67" y="0">T</tspan><tspan x="103.59" y="0">ORIES</tspan></text><text class="cls-17" transform="translate(929.12 99.5)">3.</text><text class="cls-18" transform="translate(970.49 98.63)"><tspan class="cls-20">F</tspan><tspan class="cls-21" x="17" y="0">A</tspan><tspan x="37.49" y="0">CTIONS</tspan></text><text class="cls-17" transform="translate(137.37 112.6)">1.</text><text class="cls-18" transform="translate(162.59 112.6)">THE MARKET</text><path class="cls-8" d="M566.78,68.86l158.67-1"/><path class="cls-8" d="M566.78,70.36,628.65,70l61.87-.39,34.93-.22a1.5,1.5,0,0,0,0-3l-61.87.39-61.88.39-34.92.22a1.5,1.5,0,0,0,0,3Z"/><path class="cls-8" d="M538.78,83.26l186.67.66"/><path class="cls-8" d="M538.78,84.76l72.87.26,72.87.26,40.93.14a1.5,1.5,0,0,0,0-3l-72.87-.25-72.87-.26-40.93-.15a1.5,1.5,0,0,0,0,3Z"/><path class="cls-8" d="M537.49,99.07l56,.87"/><path class="cls-8" d="M537.49,100.57l56,.87c1.93,0,1.93-3,0-3l-56-.87c-1.93,0-1.93,3,0,3Z"/><path class="cls-8" d="M192,148.86l55.63-1.17,55.63-1.17,31.43-.66c1.92,0,1.93-3.05,0-3L279.08,144l-55.63,1.17-31.43.66c-1.93,0-1.94,3,0,3Z"/><path class="cls-8" d="M154.7,164l69.19-1.84,69.19-1.84,39-1c1.92,0,1.93-3,0-3l-69.19,1.83L193.66,160l-39,1c-1.93.05-1.94,3.05,0,3Z"/><path class="cls-8" d="M341.36,159.76a1.5,1.5,0,0,0,0-3,1.5,1.5,0,0,0,0,3Z"/><path class="cls-8" d="M973.45,141.69l55.63-1.17,55.62-1.17,31.44-.66c1.92,0,1.93-3,0-3l-55.63,1.17L1004.88,138l-31.43.66c-1.93,0-1.94,3,0,3Z"/><path class="cls-8" d="M936.13,156.86l69.19-1.84,69.19-1.84,39-1c1.92-.05,1.93-3.05,0-3L1044.29,151l-69.2,1.83-39,1c-1.93,0-1.94,3,0,3Z"/><path class="cls-8" d="M1122.79,152.59a1.5,1.5,0,0,0,0-3,1.5,1.5,0,0,0,0,3Z"/><rect class="cls-22" x="183.93" y="240.94" width="116.72" height="46.67" rx="7.95"/><rect class="cls-3" x="186.93" y="240.94" width="116.72" height="46.67" rx="7.95"/><polygon class="cls-23" points="260.92 264.27 235.13 249.38 235.13 279.16 260.92 264.27"/><polygon class="cls-8" points="262.25 264.27 236.47 249.38 236.47 279.16 262.25 264.27"/><rect class="cls-22" x="571.17" y="169.96" width="116.72" height="46.67" rx="7.95"/><rect class="cls-3" x="574.17" y="169.96" width="116.72" height="46.67" rx="7.95"/><polygon class="cls-23" points="648.16 193.29 622.37 178.4 622.37 208.18 648.16 193.29"/><polygon class="cls-8" points="649.49 193.29 623.7 178.4 623.7 208.18 649.49 193.29"/><rect class="cls-22" x="973.07" y="228.27" width="116.72" height="46.67" rx="7.95"/><rect class="cls-3" x="976.07" y="228.27" width="116.72" height="46.67" rx="7.95"/><polygon class="cls-23" points="1050.06 251.6 1024.27 236.71 1024.27 266.49 1050.06 251.6"/><polygon class="cls-8" points="1051.39 251.6 1025.6 236.71 1025.6 266.49 1051.39 251.6"/></g></g></svg>