<svg xmlns="http://www.w3.org/2000/svg" viewBox="0 0 850.96 990.3"><defs><style>.cls-1{fill:#0e1a1a;}.cls-2{fill:#dcddde;}.cls-20,.cls-21,.cls-22,.cls-3{fill:#fff;}.cls-4{fill:#6fccdc;}.cls-10,.cls-11,.cls-12,.cls-13,.cls-14,.cls-15,.cls-16,.cls-18,.cls-19,.cls-5{fill:none;}.cls-5{stroke:#17a3a4;stroke-width:29.45px;}.cls-10,.cls-11,.cls-12,.cls-13,.cls-14,.cls-15,.cls-16,.cls-18,.cls-5{stroke-linecap:round;}.cls-11,.cls-13,.cls-15,.cls-18,.cls-19,.cls-5{stroke-miterlimit:10;}.cls-6{fill:#132626;}.cls-7{fill:#234b4c;}.cls-8{fill:#4e4e4e;}.cls-9{fill:#272626;}.cls-10,.cls-12,.cls-14,.cls-16,.cls-18{stroke:#fff;}.cls-10,.cls-12,.cls-14,.cls-16{stroke-linejoin:round;}.cls-10{stroke-width:2.95px;}.cls-11,.cls-13,.cls-15{stroke:#818181;}.cls-11,.cls-12{stroke-width:5.89px;}.cls-13,.cls-14{stroke-width:8.25px;}.cls-15,.cls-16{stroke-width:10.88px;}.cls-17{fill:#17a3a4;}.cls-18{stroke-width:1.96px;}.cls-19{stroke:#6fccdc;stroke-width:7.85px;}.cls-20{font-size:49.09px;}.cls-20,.cls-21,.cls-22{font-family:ProximaNova-Semibold, Proxima Nova;font-weight:600;}.cls-21{font-size:33.38px;}.cls-22{font-size:29.45px;}.cls-23{letter-spacing:-0.02em;}.cls-24{letter-spacing:-0.01em;}.cls-25{fill:#294d4e;}.cls-26{fill:#9f9f9f;}</style></defs><g id="Layer_2" data-name="Layer 2"><g id="Layer_1-2" data-name="Layer 1"><path class="cls-1" d="M392.27,967l.12-.4c0-2.08-.23-4.7-1.61-6.31a1.47,1.47,0,0,1-.28-.48c-2.52-1.84-5.05-3.62-7.5-5.4a1.57,1.57,0,0,1-.45-.52l-38.44-20.77c-4.43-.33-6.42,3.32-9.19,5.68-3,2.5-5,6-9.19,8.77,1.48-7.72,8.27-10.52,10.73-16.22-.35-5.16-4.74-4.57-8-5.61-7.66,1.4-10.4,9-16.6,13.44-.09-.52-.18-1-.28-1.51.6-2.54,2.65-3.75,3.94-5.38,2.42-3,6.41-4.9,7.08-9.28-1.55-3.61-5.09-4.24-8.22-5.49a29.62,29.62,0,0,0-6.95,3.9c-.37-1-.75-1.95-1.14-2.81a26.9,26.9,0,0,0,2.16-4.09c-3.17-2.65-6.3-5.39-10.85-5.1-6.77-1.22-11.21,8.34-24.23,12.28-14.39,4.36-29-1.25-39.9-7.32-3.77.11-7.28,1.09-8.07,5.26-2.93,15.35-6.81,30.53-8.57,46.1q34.07-.13,69,.44,14.66.24,29.16.6c18.13-.11,36.26.07,54.39.14Z"/><path class="cls-2" d="M216.85,965.76H392.39a0,0,0,0,1,0,0V971a3,3,0,0,1-3,3H216.85a0,0,0,0,1,0,0v-8.29a0,0,0,0,1,0,0Z"/><path class="cls-3" d="M189.6,936V909l66.69-1.82V936S219.78,952.12,189.6,936Z"/><polygon class="cls-4" points="196.35 678.26 49.06 678.26 15.47 345.94 166.17 311.09 196.35 678.26"/><polyline class="cls-5" points="14.73 342.8 57.26 666.41 364.47 666.41"/><path class="cls-3" d="M184.19,238a51.4,51.4,0,0,1-11.9-6.64c-13.78-10.26-22.23-27.06-22.7-44.62A56.66,56.66,0,0,1,152,168.52l34.2-111.84a88.39,88.39,0,0,1,22.65-.29c.37-.71.76-1.41,1.18-2.09,8.48-13.64,25-17.48,37-8.57a28.35,28.35,0,0,1,10.79,18.63,38.14,38.14,0,0,1,27.92-3.88,38.58,38.58,0,0,1,5.52,1.87l-26.65,87.16L247.34,206C238.78,234,210.51,248.3,184.19,238Z"/><path class="cls-6" d="M309.09,130.16c-7.33,11.8-18.61,18.83-30.38,20.29a36.86,36.86,0,0,1-14.09-.94c-.7-.19-1.39-.4-2.08-.62L177,125.94a10,10,0,0,0-12.14,7l-13.43,49.39-1.2,3.79a.85.85,0,0,1-.64.61.93.93,0,0,1-1-.63c-7-19.3-53.79-139.65,22.28-125.32,0,0,.36-.17,1.06-.45a64.89,64.89,0,0,1,14.34-3.61,88.39,88.39,0,0,1,22.65-.29c.37-.71.76-1.41,1.18-2.09,8.48-13.64,25-17.48,37-8.57a28.35,28.35,0,0,1,10.79,18.63,38.14,38.14,0,0,1,27.92-3.88,37.74,37.74,0,0,1,13.37,6.41C317.72,80.76,322.19,109.09,309.09,130.16Z"/><path class="cls-6" d="M271.35,892q-.14-5.93-.25-11.83c-16.23-.11-32.43-1.18-48.65-1.28-15.27-.1-30.51-.21-45.77.29l-1.34.05q.32,15,.64,30.07,15.26-.35,30.53-.74,32.58-.84,65.15-1.86-.15-6.91-.29-13.82Z"/><path class="cls-6" d="M105.23,637.25a60.26,60.26,0,0,0,15.28,8.51c9.87,3.69,31.11,8.55,42.07,6.51,1-.17,4-.82,5.76.83.92.87,1.06,2.6,1.14,5.85.22,8.52.54,17.06.21,25.6-.29,7.36,0,32.88,1.95,84,.63,16.76,1.59,38.06,3.1,62.87,0,5.79-.12,11.59,0,17.39q.27,13.73.55,27.47c2.32-.08,4.65-.17,7-.23,15.15-.41,30.3-.34,45.45-.06,14.45.26,28.89,1.12,43.34,1.22q-1.14-53.67-2.24-107.32l-.06-3q-1.23-58.89-2.5-117.77l-.05-2.29q-.46-22-1-44c-.43-19-11-36.74-26.34-47.88a61.5,61.5,0,0,0-30.5-11.72c-2.89-.26-5.79-.61-8.68-.91-.19-.14-.37-.28-.57-.4a10.12,10.12,0,0,0-5.62-1.25c-16.52.07-33-.8-49.55-.19-19.43.72-38.87.85-58.32,1.31-3.22.07-6.59-.22-9.38,2-.55,3.42-1,6.93-1.51,10.56q-.92,7.44-1.43,14.35a88.94,88.94,0,0,0-.36,10C73.45,603,84.52,622.37,105.23,637.25Z"/><path class="cls-1" d="M275.72,872.08q.39,11.25.76,22.52l0,.88,22.19,10.69,10.13-21.79C298,879.82,286.55,876.72,275.72,872.08Z"/><path class="cls-1" d="M311.25,544l-109.63-2.74a4.39,4.39,0,0,1,.56.4c2.9.3,5.79.64,8.68.91a62,62,0,0,1,33.4,14c13.74,11.18,23,27.83,23.45,45.64q.53,23.14,1,46.27l60-1.24a2.17,2.17,0,0,1,2,3.1L274.19,771.39q1,48.14,2,96.29c11.15,5.14,23,8.47,34.28,13.34l98-218.18c.39-.79,4-7.68,4-8.55C410.42,595,370.71,542.72,311.25,544Z"/><path class="cls-3" d="M159.28,187.65l-12,59.2-.12.24-.11.12v.1l.11.11.19.15,23.2,25.16c6.21,5.53,22.65,4,25.31-4.63l2.93-7.84,6.41-17.17h.06c2.5-16.66,5.09-36.92,5.09-36.92Z"/><path class="cls-7" d="M240.39,510.37l-2.16,25.36a5.27,5.27,0,0,1-5.2,4.81l-152,1.22a4.86,4.86,0,0,1-4.88-4.24L62,429.3l34.32,51a24.23,24.23,0,0,0,5.47,5.8,47,47,0,0,0,29.37,15.73Z"/><path class="cls-7" d="M260.4,276l-16,188.13-82-19.38L64.7,299.68a15.11,15.11,0,0,0-17.39-5.86l99.83-46.73,0,.11.42.6.79.58,22.14,24.35c6.21,5.53,22.65,4,25.31-4.63l2.93-7.83Z"/><path class="cls-7" d="M180.94,462.25l-43,29a25.08,25.08,0,0,1-29.16-.82,24.82,24.82,0,0,1-5.64-6l-35.4-52.58L28.54,373.62a54.75,54.75,0,0,1,14.85-76l5.52-3.71c.22-.15.45-.29.68-.43a14.92,14.92,0,0,1,3-1.39h0a15.58,15.58,0,0,1,17.93,6L171.18,447.74Z"/><path class="cls-7" d="M292.73,365l-1.29-51.29c-.55-22.09-20-40.37-43.34-40.8l-5.14-.1h-.62a12.86,12.86,0,0,0-2.51.32h0A10.89,10.89,0,0,0,231.21,284l3.31,131.81.32,12.78,12.53.23s0-.09,0-.14a18.38,18.38,0,0,1,2.52-4.18,11.75,11.75,0,0,1,4-2.9,23.53,23.53,0,0,1,5.52-1.89c1.93-.36,4-.59,5.92-.76a1.55,1.55,0,0,1,1.59,1.47,1.58,1.58,0,0,1-1.59,1.48,28.41,28.41,0,0,0-9.84,2.24,9.06,9.06,0,0,0-3.35,2.41,12.8,12.8,0,0,0-1.44,2.34l24.18.46c8.52.16,15.62-4.9,18.05-12.06a17,17,0,0,0,.88-5.91Z"/><path class="cls-7" d="M306.64,474.56l-6.56-33.2-7.27-36.74c-3.13-15.84-20.3-26-38.35-22.8l-4,.72a4.1,4.1,0,0,0-.48.1,9.94,9.94,0,0,0-1.89.61h0c-3.77,1.65-6.06,5.34-5.31,9.11l6.48,32.75a11.83,11.83,0,0,1,.9-1.14,12,12,0,0,1,4.23-2.9,25.4,25.4,0,0,1,5.82-1.89,62,62,0,0,1,6.23-.76,1.59,1.59,0,0,1,1.67,1.47,1.62,1.62,0,0,1-1.67,1.47,31.49,31.49,0,0,0-10.36,2.25,9.33,9.33,0,0,0-3.53,2.41,17.26,17.26,0,0,0-2.16,3.61.83.83,0,0,1-.19.26l11.25,56.91L263.3,496l31-5.56c6.58-1.18,11.43-5.9,12.41-11.43A11.64,11.64,0,0,0,306.64,474.56Z"/><path class="cls-8" d="M359.48,452.64l-70.2-.07a2,2,0,0,0-1.87,1.31L260,528.81a1.94,1.94,0,0,0,.64,2.19l0,0a6,6,0,0,0,3.65,1.24l70.91.06a2.45,2.45,0,0,0,2.32-1.61l26.69-73a46.16,46.16,0,0,1-3.36-4.28A1.72,1.72,0,0,0,359.48,452.64Z"/><path class="cls-9" d="M363.88,457.08,290.27,457l-27.72,75.27,72.51.06a2.75,2.75,0,0,0,2.59-1.81l26.77-72.68Z"/><path class="cls-3" d="M289.31,515.1c13.59,0,24.89-6.08,27.2-14.1a2.42,2.42,0,0,0-2.36-3H261.67C261.67,507.43,274,515.1,289.31,515.1Z"/><path class="cls-3" d="M249.17,507.11c.43-1.31,2.61-28.58,2.61-28.58l23.86,4c2,.36,1.41,1.87.14,3.83a26.78,26.78,0,0,0-4.23,14.26l-.13,10.25Z"/><path class="cls-7" d="M264.94,472.24l-5.46,41.88-25.37-2L124.87,503.6a47,47,0,0,1-40.53-52.66l.8-6.13a13.34,13.34,0,0,1,15-11.51L156,446.51l82,19.38Z"/><polyline class="cls-10" points="261.41 507.65 266.55 470.99 167.67 447.66 134.09 396.44"/><path class="cls-11" d="M370.49,436.68S387,441.12,383.32,460"/><path class="cls-12" d="M372.44,435.26s16.53,4.44,12.83,23.28"/><path class="cls-13" d="M391,419.58s23.15,6.22,18,32.62"/><path class="cls-14" d="M393.71,417.59s23.15,6.22,18,32.62"/><circle class="cls-4" cx="596.12" cy="496.89" r="81.43"/><path class="cls-15" d="M409.7,399.39s30.53,8.2,23.68,43"/><path class="cls-16" d="M413.3,396.76s30.53,8.2,23.69,43"/><circle class="cls-4" cx="746.18" cy="338.2" r="104.78"/><circle class="cls-4" cx="556.07" cy="142.77" r="142.77"/><circle class="cls-17" cx="556.07" cy="142.77" r="133.74"/><circle class="cls-17" cx="746.18" cy="338.2" r="94.36"/><circle class="cls-17" cx="596.12" cy="496.89" r="70.65"/><polyline class="cls-18" points="275.18 484.3 287.32 451.64 323.31 451.64"/><path class="cls-19" d="M665.19,229.56c.11,1,16.95,18.71,21.42,28.55"/><path class="cls-19" d="M682.57,413.7s-13.51,27.76-29.72,33.72"/><text class="cls-20" transform="translate(439.25 158.08)">CHECK UP</text><text class="cls-21" transform="translate(674.5 347.42)">COLLECT</text><text class="cls-22" transform="translate(541.25 505.48)">A<tspan class="cls-23" x="19.82" y="0">D</tspan><tspan x="40.14" y="0">JU</tspan><tspan class="cls-24" x="75.54" y="0">S</tspan><tspan x="92.74" y="0">T</tspan></text><ellipse class="cls-3" cx="357.82" cy="504.97" rx="10.86" ry="5.62" transform="translate(-237.28 674.92) rotate(-70.62)"/><path class="cls-25" d="M350.75,983.22l.12-.41c0-2.08-.22-4.7-1.61-6.31A1.54,1.54,0,0,1,349,976c-2.52-1.85-5.05-3.63-7.49-5.4a1.6,1.6,0,0,1-.46-.52l-38.44-20.78c-4.43-.32-6.41,3.33-9.19,5.68-2.95,2.51-5,6-9.18,8.77,1.47-7.72,8.27-10.52,10.72-16.22-.35-5.15-4.74-4.56-8-5.61-7.66,1.4-10.4,9-16.61,13.44-.09-.52-.18-1-.27-1.51.59-2.53,2.65-3.75,3.94-5.38,2.42-3,6.41-4.89,7.07-9.28-1.55-3.61-5.09-4.23-8.21-5.48a29,29,0,0,0-6.95,3.89c-.37-1-.75-2-1.14-2.81a27.32,27.32,0,0,0,2.16-4.09c-3.18-2.64-6.3-5.39-10.86-5.09-6.77-1.23-11.21,8.34-24.23,12.28-14.38,4.35-29.05-1.26-39.89-7.33-3.77.11-7.29,1.1-8.08,5.26-2.93,15.35-6.8,30.53-8.56,46.1q34-.12,69,.44,14.67.24,29.16.61c18.13-.12,36.27.06,54.4.13Z"/><path class="cls-2" d="M175.34,982H350.88a0,0,0,0,1,0,0v5.28a3,3,0,0,1-3,3H175.34a0,0,0,0,1,0,0V982A0,0,0,0,1,175.34,982Z"/><path class="cls-26" d="M277,905.51v-4.08a.58.58,0,0,1,.85-.51l12.53,6.71a.57.57,0,0,1,.14.92c-2.74,2.67-15.21,14-28,11.75a2.66,2.66,0,0,1-2.22-2.62v-5.61a2,2,0,0,1,2.28-2.05c2.17.29,6.1.09,12.83-2.29A2.36,2.36,0,0,0,277,905.51Z"/></g></g></svg>